<?xml version="1.0" standalone="no"?>
<!DOCTYPE svg PUBLIC "-//W3C//DTD SVG 20010904//EN"
 "http://www.w3.org/TR/2001/REC-SVG-20010904/DTD/svg10.dtd">
<svg version="1.0" xmlns="http://www.w3.org/2000/svg"
 width="428.000000pt" height="289.000000pt" viewBox="0 0 428.000000 289.000000"
 preserveAspectRatio="xMidYMid meet">

<g transform="translate(0.000000,289.000000) scale(0.100000,-0.100000)"
fill="#000000" stroke="none">
<path d="M150 2646 c0 -8 7 -16 15 -20 12 -4 15 -26 15 -109 0 -134 -9 -162
-53 -162 -25 0 -32 -4 -32 -20 0 -31 54 -32 87 -2 36 33 48 84 48 200 0 58 4
97 10 97 6 0 10 7 10 15 0 11 -12 15 -50 15 -36 0 -50 -4 -50 -14z m59 -123
c-2 -117 -7 -107 -11 25 -2 45 0 82 4 82 5 0 7 -48 7 -107z"/>
<path d="M309 2621 c-36 -36 -39 -43 -39 -95 0 -50 4 -61 33 -92 80 -87 217
-30 217 91 0 76 -59 135 -136 135 -29 0 -44 -8 -75 -39z m121 -11 c24 -13 44
-74 36 -113 -11 -56 -51 -80 -101 -61 -41 16 -57 101 -30 154 12 23 22 30 46
30 17 0 39 -4 49 -10z m70 -86 c0 -24 -4 -46 -10 -49 -6 -4 -10 13 -10 44 0
27 -3 58 -6 68 -5 16 -4 16 10 -1 9 -11 16 -38 16 -62z m-195 19 c0 -21 4 -51
8 -67 7 -26 6 -28 -7 -17 -21 18 -30 74 -17 100 16 28 17 27 16 -16z"/>
<path d="M610 2647 c-38 -19 -70 -74 -70 -121 0 -102 95 -161 199 -125 27 10
31 15 31 49 0 26 5 40 16 44 9 4 17 5 18 4 23 -60 80 -108 128 -108 102 0 164
124 105 211 -28 41 -60 59 -110 59 -48 0 -105 -49 -116 -100 -7 -35 -7 -35
-64 -38 -54 -3 -74 -16 -42 -28 9 -4 15 -19 15 -35 0 -27 -3 -29 -38 -29 -56
0 -87 36 -87 100 0 64 23 90 80 90 33 0 46 -5 58 -22 12 -18 18 -20 27 -11 22
21 4 60 -31 67 -48 9 -91 7 -119 -7z m360 -37 c41 -22 50 -122 13 -162 -35
-39 -104 -12 -119 47 -8 32 1 92 17 111 13 16 62 19 89 4z m64 -36 c9 -24 7
-82 -3 -88 -5 -4 -7 2 -4 13 2 10 0 35 -5 55 -10 35 0 52 12 20z m-460 -22
c-3 -15 1 -46 9 -69 8 -24 10 -40 5 -37 -16 10 -38 71 -33 88 3 9 7 23 10 31
8 26 15 16 9 -13z m270 -40 c4 -32 3 -51 -2 -48 -13 8 -22 59 -15 85 7 29 9
25 17 -37z m-97 -64 c-2 -13 -4 -5 -4 17 -1 22 1 32 4 23 2 -10 2 -28 0 -40z"/>
<path d="M1166 2651 c-3 -5 1 -14 9 -21 11 -9 15 -35 15 -105 0 -70 -4 -96
-15 -105 -23 -19 -8 -30 40 -30 47 0 68 17 41 32 -21 12 -22 76 -1 84 8 4 26
-1 40 -10 13 -9 27 -16 30 -16 3 0 5 20 5 45 0 32 -4 45 -14 45 -8 0 -17 -7
-20 -16 -3 -9 -15 -14 -28 -12 -19 2 -24 10 -26 41 l-3 37 40 0 c27 0 43 -5
49 -16 14 -25 29 -9 24 26 l-4 30 -89 0 c-48 0 -90 -4 -93 -9z m58 -125 c0
-58 -2 -106 -6 -106 -5 0 -8 50 -8 112 0 61 3 109 6 105 3 -3 7 -53 8 -111z"/>
<path d="M1365 2651 c-3 -6 2 -14 12 -19 14 -8 17 -26 17 -108 1 -69 -3 -99
-11 -101 -7 -3 -13 -11 -13 -19 0 -12 17 -14 92 -12 l91 3 13 38 c12 34 11 37
-5 37 -10 0 -21 -9 -24 -21 -5 -17 -12 -20 -49 -17 -42 3 -43 4 -43 38 0 29 4
36 24 38 15 2 28 -3 33 -12 16 -29 28 -17 28 29 0 45 -7 54 -27 34 -6 -6 -21
-9 -34 -7 -19 2 -24 9 -24 33 0 27 3 30 38 33 26 2 39 -1 43 -12 10 -26 37
-20 30 7 -3 12 -6 28 -6 35 0 15 -175 18 -185 3z m61 -131 c0 -61 -3 -110 -8
-110 -4 0 -8 50 -8 110 0 61 3 110 8 110 4 0 7 -50 8 -110z"/>
<path d="M1585 2650 c-3 -6 1 -13 9 -16 24 -9 23 -199 0 -212 -29 -16 -5 -32
47 -32 35 0 49 4 49 14 0 8 -7 16 -15 20 -12 4 -15 25 -15 101 0 76 3 97 15
101 8 4 15 12 15 20 0 17 -95 20 -105 4z m56 -122 c-3 -140 -11 -138 -11 2 0
62 3 111 6 107 4 -3 6 -52 5 -109z"/>
<path d="M1700 2625 c0 -35 16 -47 26 -20 4 9 19 15 35 15 l29 0 0 -100 c0
-60 -4 -100 -10 -100 -5 0 -10 -7 -10 -15 0 -11 12 -15 50 -15 52 0 61 10 35
37 -12 12 -15 34 -13 102 l3 86 29 3 c19 2 32 -2 38 -12 15 -27 28 -18 28 19
l0 35 -120 0 -120 0 0 -35z m124 -100 c1 -58 -2 -105 -6 -105 -5 0 -8 50 -8
112 0 61 3 108 7 105 4 -4 7 -54 7 -112z"/>
<path d="M2013 2639 c-45 -29 -70 -96 -54 -148 16 -55 71 -101 119 -101 49 0
95 29 115 73 59 123 -68 248 -180 176z m111 -34 c35 -36 38 -121 5 -161 -17
-21 -73 -17 -94 6 -26 28 -32 113 -11 145 19 29 75 35 100 10z m66 -74 c0 -20
-5 -43 -10 -51 -7 -11 -10 -3 -10 30 0 25 -3 56 -6 70 -5 24 -5 24 10 6 9 -11
16 -36 16 -55z m-186 -72 c4 -8 -2 -3 -13 10 -21 24 -27 65 -14 98 5 12 10 0
14 -38 3 -31 9 -62 13 -70z"/>
<path d="M2310 2646 c0 -8 7 -16 15 -20 23 -8 22 -191 -1 -204 -29 -16 -5 -32
47 -32 35 0 49 4 49 14 0 8 -7 16 -15 20 -9 3 -15 19 -15 41 0 32 2 35 30 35
72 0 108 96 54 139 -21 17 -41 21 -95 21 -52 0 -69 -3 -69 -14z m57 -178 c-2
-35 -3 -9 -3 57 0 66 1 94 3 63 2 -32 2 -86 0 -120z m81 116 c3 -34 -18 -60
-43 -50 -10 3 -15 19 -15 46 0 39 1 41 28 38 22 -2 28 -9 30 -34z m35 13 c3
-8 1 -20 -4 -28 -6 -10 -9 -7 -9 14 0 29 5 35 13 14z"/>
<path d="M2564 2627 c-66 -60 -56 -171 19 -217 115 -71 241 77 164 191 -46 69
-124 80 -183 26z m133 -34 c25 -37 24 -114 -1 -142 -35 -39 -96 -23 -115 30
-15 44 -14 75 4 109 13 26 21 30 55 30 32 0 43 -5 57 -27z m54 -43 c3 -39 0
-70 -8 -70 -5 0 -8 15 -8 33 0 17 -4 46 -8 62 -7 27 -7 28 7 15 8 -8 16 -26
17 -40z m-196 -7 c0 -21 4 -51 8 -66 11 -40 -9 -25 -23 17 -7 23 -7 41 -1 60
14 35 17 33 16 -11z"/>
<path d="M2790 2647 c0 -8 7 -17 15 -21 23 -8 22 -191 -1 -204 -27 -15 -6 -32
41 -32 47 0 68 17 41 32 -15 8 -24 78 -10 78 3 0 29 -24 57 -54 52 -54 52 -55
107 -53 49 2 55 5 58 25 4 29 -23 39 -48 17 -17 -15 -20 -15 -43 0 -29 19 -57
57 -57 78 0 8 7 20 15 27 22 18 19 73 -6 96 -28 25 -169 35 -169 11z m62 -69
c4 -69 -2 -158 -10 -158 -4 0 -7 47 -7 105 0 109 12 145 17 53z m76 11 c3 -29
-20 -54 -43 -45 -9 3 -15 18 -15 41 0 34 2 36 28 33 21 -2 28 -9 30 -29z m42
-10 c0 -5 -4 -9 -10 -9 -5 0 -10 7 -10 16 0 8 5 12 10 9 6 -3 10 -10 10 -16z
m-31 -95 c24 -41 12 -37 -19 6 -12 17 -17 30 -12 30 6 0 19 -16 31 -36z m141
-64 c0 -5 -4 -10 -10 -10 -5 0 -10 5 -10 10 0 6 5 10 10 10 6 0 10 -4 10 -10z"/>
<path d="M3046 2554 c-9 -22 17 -49 39 -40 10 3 15 15 13 28 -4 29 -42 37 -52
12z m34 -14 c0 -5 -2 -10 -4 -10 -3 0 -8 5 -11 10 -3 6 -1 10 4 10 6 0 11 -4
11 -10z"/>
<path d="M211 2041 c-23 -60 -49 -115 -57 -122 -25 -20 -15 -29 31 -29 46 0
54 7 33 28 -9 9 -9 18 0 37 17 36 68 36 83 -2 7 -18 6 -30 -1 -37 -22 -22 -7
-26 90 -26 99 0 114 6 85 30 -17 14 -22 125 -6 134 5 3 36 -31 68 -76 85 -119
93 -117 93 25 0 95 3 116 16 121 8 3 24 1 35 -4 17 -9 19 -22 19 -104 0 -74
-3 -95 -15 -100 -8 -3 -15 -10 -15 -16 0 -16 156 -12 190 5 39 20 60 63 60
120 0 38 -6 52 -34 83 l-34 37 -146 3 c-102 2 -146 0 -146 -8 0 -6 7 -13 15
-16 11 -5 15 -21 15 -60 0 -30 -4 -54 -9 -54 -6 0 -31 31 -58 70 -47 67 -49
69 -90 70 -46 0 -56 -13 -23 -30 18 -9 20 -21 20 -99 0 -66 -4 -92 -15 -101
-33 -27 -49 -4 -110 158 -15 39 -32 72 -39 72 -7 0 -32 -49 -55 -109z m519
-21 c0 -60 -3 -110 -7 -110 -5 0 -7 48 -6 107 2 124 2 113 8 113 3 0 5 -49 5
-110z m119 63 c20 -23 22 -34 18 -77 -5 -60 -34 -89 -81 -84 l-31 3 -3 84 c-2
46 0 91 3 99 8 22 66 7 94 -25z m52 -30 c10 -26 4 -83 -9 -83 -4 0 -7 25 -8
55 0 30 1 55 3 55 2 0 8 -12 14 -27z m-631 -17 c0 -8 -4 -18 -10 -21 -5 -3
-10 3 -10 14 0 12 5 21 10 21 6 0 10 -6 10 -14z m74 -111 c3 -8 1 -15 -4 -15
-6 0 -10 7 -10 15 0 8 2 15 4 15 2 0 6 -7 10 -15z"/>
<path d="M940 2136 c0 -8 7 -16 15 -20 12 -4 15 -25 15 -100 0 -74 -3 -95 -15
-100 -33 -12 -12 -26 40 -26 53 0 72 11 40 24 -14 5 -23 76 -9 76 3 0 27 -22
53 -50 l47 -50 122 0 122 0 11 27 c5 14 7 33 4 42 -5 12 -10 9 -28 -13 -18
-22 -29 -27 -57 -24 -33 3 -35 5 -35 38 0 29 4 36 24 38 15 2 28 -3 33 -12 14
-26 28 -9 28 35 0 28 -4 39 -15 39 -8 0 -15 -4 -15 -10 0 -5 -13 -10 -30 -10
-27 0 -30 3 -30 34 0 49 50 64 85 26 23 -25 35 -15 28 23 l-5 27 -89 0 c-86 0
-115 -10 -84 -27 13 -8 15 -27 13 -108 -2 -64 -7 -100 -15 -102 -17 -6 -93 66
-93 87 0 10 7 23 15 30 25 21 19 76 -11 99 -21 17 -41 21 -95 21 -52 0 -69 -3
-69 -14z m60 -116 c0 -60 -3 -110 -7 -110 -6 0 -8 171 -3 218 0 1 2 2 5 2 3 0
5 -49 5 -110z m243 -4 c1 -58 -1 -106 -5 -106 -5 0 -8 50 -8 112 0 61 3 109 6
106 3 -4 6 -54 7 -112z m-182 94 c25 -14 25 -56 -1 -70 -28 -15 -40 -5 -40 34
0 46 8 53 41 36z m52 -23 c3 -8 1 -20 -4 -28 -6 -10 -9 -7 -9 14 0 29 5 35 13
14z m-24 -113 c24 -41 12 -37 -19 6 -12 17 -17 30 -12 30 6 0 19 -16 31 -36z"/>
<path d="M1480 2140 c0 -6 6 -13 14 -16 8 -3 33 -54 57 -112 23 -59 48 -113
54 -121 16 -16 16 -15 70 114 21 50 47 99 57 111 26 30 23 34 -26 34 -48 0
-67 -13 -41 -28 15 -8 14 -15 -7 -67 -13 -32 -29 -60 -34 -62 -17 -6 -60 115
-45 130 21 21 11 27 -44 27 -31 0 -55 -4 -55 -10z m95 -100 c15 -41 34 -82 42
-92 10 -11 11 -18 3 -23 -6 -4 -12 -5 -14 -4 -6 11 -76 196 -76 204 0 20 18
-13 45 -85z"/>
<path d="M1417 1933 c-13 -12 -7 -44 9 -50 20 -7 45 22 37 43 -5 14 -35 19
-46 7z m33 -17 c0 -3 -4 -8 -10 -11 -5 -3 -10 -1 -10 4 0 6 5 11 10 11 6 0 10
-2 10 -4z"/>
<path d="M205 1630 c-13 -15 -16 -29 -11 -58 5 -33 2 -42 -19 -62 -17 -16 -25
-34 -25 -57 0 -45 34 -67 92 -59 58 8 59 8 89 1 17 -5 31 -1 43 10 20 20 11
38 -14 30 -32 -10 -32 14 0 46 37 37 29 51 -23 42 -31 -5 -36 -9 -32 -24 9
-28 -14 -23 -26 5 -9 20 -8 27 10 45 27 27 28 77 2 91 -31 16 -66 12 -86 -10z
m60 -40 c0 -13 -5 -25 -12 -27 -13 -5 -27 32 -18 47 11 18 30 5 30 -20z m5
-151 c0 -12 -37 -17 -54 -7 -19 11 -22 54 -3 61 11 4 56 -39 57 -54z m-93 -1
c-3 -7 -5 -2 -5 12 0 14 2 19 5 13 2 -7 2 -19 0 -25z"/>
<path d="M150 1136 c0 -8 7 -16 15 -20 12 -4 15 -23 15 -83 0 -91 -7 -123 -26
-123 -8 0 -14 -7 -14 -15 0 -11 12 -15 50 -15 36 0 50 4 50 14 0 8 -7 17 -16
20 -11 4 -14 18 -12 58 2 29 7 52 13 51 5 -1 21 -32 35 -70 14 -37 32 -68 39
-68 7 0 26 32 42 70 42 98 49 101 49 22 0 -38 -4 -67 -10 -67 -5 0 -10 -7 -10
-15 0 -12 18 -15 100 -15 80 0 100 3 100 14 0 8 -5 16 -11 18 -6 2 -8 14 -4
31 6 23 12 27 45 27 33 0 39 -4 44 -26 4 -15 2 -32 -3 -37 -20 -20 -11 -27 39
-27 36 0 50 4 50 14 0 8 -6 16 -13 19 -7 3 -33 57 -56 121 -24 65 -48 115 -54
113 -6 -2 -32 -55 -57 -118 -44 -109 -48 -114 -76 -114 l-29 0 -3 94 c-2 56 1
98 8 105 23 23 11 37 -31 34 l-41 -3 -30 -78 c-16 -43 -35 -76 -40 -75 -6 2
-24 39 -41 81 l-30 77 -44 0 c-30 0 -43 -4 -43 -14z m269 -83 l-2 -78 -7 55
c-4 30 -11 65 -15 78 -6 17 -3 22 9 22 13 0 16 -12 15 -77z m-159 -15 c18 -46
37 -87 42 -92 10 -13 10 -26 0 -26 -8 0 -82 175 -82 193 0 20 11 0 40 -75z
m350 -13 c0 -8 -4 -15 -10 -15 -5 0 -10 7 -10 15 0 8 5 15 10 15 6 0 10 -7 10
-15z m-180 -116 c0 -5 -4 -9 -10 -9 -5 0 -10 7 -10 16 0 8 5 12 10 9 6 -3 10
-10 10 -16z m260 0 c0 -5 -4 -9 -10 -9 -5 0 -10 7 -10 16 0 8 5 12 10 9 6 -3
10 -10 10 -16z"/>
<path d="M740 1115 c0 -38 10 -44 30 -20 7 8 23 15 36 15 24 0 24 -1 24 -99 0
-80 -3 -100 -16 -105 -29 -11 -3 -26 47 -26 35 0 49 4 49 14 0 8 -7 17 -15 20
-13 5 -15 22 -13 98 l3 93 28 3 c18 2 29 -2 33 -12 9 -23 34 -19 34 5 0 15 4
19 16 15 9 -3 18 -6 20 -6 2 0 4 -43 4 -95 0 -76 -3 -97 -15 -101 -8 -4 -15
-12 -15 -20 0 -11 20 -14 94 -14 91 0 94 1 100 24 3 13 9 31 12 40 9 24 -23
20 -36 -4 -8 -15 -21 -20 -50 -20 -39 0 -40 1 -40 35 0 42 22 56 49 31 27 -24
31 -20 31 29 0 44 -12 60 -24 30 -3 -8 -17 -15 -31 -15 -23 0 -25 4 -25 40 0
39 1 40 35 40 22 0 38 -6 41 -15 10 -25 37 -18 30 8 -3 12 -6 27 -6 34 0 9
-56 12 -215 12 l-215 0 0 -34z m130 -2 c0 -5 -5 -15 -10 -23 -8 -12 -10 -11
-10 8 0 12 5 22 10 22 6 0 10 -3 10 -7z m180 -103 c0 -60 -3 -110 -7 -110 -5
0 -8 50 -8 110 0 61 3 110 8 110 4 0 7 -49 7 -110z m-187 -85 c4 -8 2 -17 -3
-20 -6 -4 -10 3 -10 14 0 25 6 27 13 6z"/>
<path d="M1204 1139 c-4 -7 1 -16 10 -21 12 -7 16 -25 16 -81 0 -94 21 -139
71 -151 44 -11 83 -2 109 24 17 17 20 34 20 104 0 76 2 86 22 100 31 22 11 38
-42 34 -46 -3 -64 -22 -30 -31 18 -5 20 -13 20 -74 0 -90 -15 -118 -60 -118
-45 0 -60 28 -60 117 0 52 4 69 16 76 27 15 6 32 -41 32 -24 0 -47 -5 -51 -11z
m70 -204 c8 -17 7 -18 -5 -7 -10 9 -14 40 -15 105 l-2 92 7 -85 c4 -47 11 -94
15 -105z"/>
<path d="M1524 1138 c-12 -5 -27 -20 -34 -33 -20 -38 -4 -73 47 -106 58 -36
68 -52 47 -73 -27 -27 -44 -21 -78 28 -19 28 -37 11 -29 -27 8 -40 17 -47 71
-47 54 0 77 12 90 47 14 41 0 65 -58 107 -54 39 -63 68 -23 74 14 2 27 -5 39
-22 23 -36 34 -32 34 13 0 32 -4 40 -22 45 -32 8 -59 6 -84 -6z m69 -141 c20
-15 37 -34 37 -42 0 -23 -17 -18 -24 8 -4 12 -28 36 -54 52 -26 17 -48 38 -50
47 -3 14 3 11 25 -10 16 -15 46 -40 66 -55z"/>
<path d="M1813 1130 c-64 -39 -85 -105 -55 -174 25 -54 62 -76 132 -76 57 0
90 24 90 65 0 31 -26 34 -35 4 -8 -25 -48 -41 -81 -33 -61 15 -86 113 -43 168
30 38 89 37 117 -1 23 -32 27 -30 35 15 6 29 3 34 -19 42 -41 16 -106 12 -141
-10z m-28 -125 c1 -58 -1 -63 -12 -43 -15 28 -16 63 -3 89 6 10 12 19 13 19 1
0 2 -29 2 -65z"/>
<path d="M2103 1138 c-6 -7 -30 -61 -53 -120 -26 -67 -47 -108 -56 -108 -8 0
-14 -7 -14 -15 0 -11 12 -15 50 -15 36 0 50 4 50 14 0 8 -5 16 -12 18 -7 3 -9
14 -4 31 5 23 12 27 41 27 29 0 37 -5 46 -27 7 -19 7 -29 0 -31 -6 -2 -11 -10
-11 -18 0 -10 14 -14 50 -14 36 0 50 4 50 14 0 8 -6 16 -14 19 -8 3 -33 54
-56 114 -46 119 -52 130 -67 111z m17 -113 c0 -8 -7 -15 -15 -15 -16 0 -20 12
-8 23 11 12 23 8 23 -8z m69 -110 c0 -13 -5 -8 -14 15 -18 46 -18 61 0 30 8
-14 14 -34 14 -45z"/>
<path d="M2240 1139 c0 -7 7 -17 15 -23 8 -6 34 -60 58 -121 27 -70 48 -110
57 -110 9 0 33 42 62 109 25 61 54 116 63 122 25 19 9 34 -35 34 -43 0 -60
-15 -37 -33 14 -11 13 -19 -10 -74 -14 -35 -29 -63 -33 -63 -4 0 -18 28 -30
61 -18 48 -21 65 -12 79 6 10 8 21 5 24 -12 11 -103 6 -103 -5z m90 -99 c16
-41 34 -83 40 -92 13 -22 14 -46 1 -32 -16 15 -90 205 -79 202 5 -2 23 -37 38
-78z"/>
<path d="M2617 1123 c-7 -16 -29 -68 -47 -117 -19 -48 -40 -90 -47 -93 -7 -3
-13 -11 -13 -19 0 -10 13 -14 45 -14 32 0 45 4 45 14 0 8 -5 16 -11 18 -6 2
-8 14 -4 31 6 23 12 27 45 27 33 0 39 -4 45 -27 4 -17 2 -29 -4 -31 -6 -2 -11
-10 -11 -18 0 -11 27 -14 148 -14 l148 0 11 40 c8 32 8 40 -3 40 -7 0 -18 -9
-24 -20 -8 -15 -21 -20 -55 -20 l-45 0 0 89 c0 66 4 93 15 105 26 26 17 36
-35 36 -37 0 -50 -4 -50 -14 0 -8 5 -18 10 -21 6 -3 10 -50 10 -106 l0 -100
-27 3 c-25 3 -31 13 -71 121 -25 64 -48 117 -53 117 -5 0 -15 -12 -22 -27z
m213 -113 c0 -67 -4 -110 -10 -110 -6 0 -10 43 -10 110 0 67 4 110 10 110 6 0
10 -43 10 -110z m-190 15 c0 -8 -4 -15 -10 -15 -5 0 -10 7 -10 15 0 8 5 15 10
15 6 0 10 -7 10 -15z m50 -35 c0 -5 -2 -10 -4 -10 -3 0 -8 5 -11 10 -3 6 -1
10 4 10 6 0 11 -4 11 -10z m30 -82 c0 -5 -4 -8 -10 -8 -5 0 -10 10 -10 23 0
18 2 19 10 7 5 -8 10 -18 10 -22z"/>
<path d="M3053 1130 c-89 -54 -95 -179 -11 -230 38 -23 124 -27 151 -7 24 17
35 77 14 77 -9 0 -19 -9 -22 -21 -8 -24 -48 -41 -80 -33 -64 16 -91 105 -49
161 16 21 31 29 62 31 35 3 43 -1 58 -22 23 -36 34 -32 34 13 0 32 -4 40 -22
45 -45 11 -103 6 -135 -14z m-30 -135 c5 -55 5 -58 -8 -35 -15 27 -19 59 -9
85 9 22 10 18 17 -50z"/>
<path d="M3342 1138 c-5 -7 -27 -56 -47 -108 -21 -52 -46 -102 -56 -112 -30
-26 -23 -38 25 -38 48 0 67 13 41 28 -13 7 -14 14 -6 35 9 22 17 27 45 27 39
0 51 -20 40 -64 l-6 -26 101 0 c83 0 101 3 101 15 0 8 -7 15 -15 15 -12 0 -15
14 -15 70 0 39 4 70 8 70 4 0 35 -38 68 -85 32 -47 64 -85 71 -85 9 0 13 33
15 117 3 103 5 118 21 121 12 2 17 -3 17 -17 0 -24 25 -28 34 -5 4 10 15 14
33 12 l28 -3 3 -93 c2 -76 0 -93 -13 -98 -8 -3 -15 -12 -15 -20 0 -10 14 -14
50 -14 38 0 50 4 50 15 0 8 -4 15 -10 15 -6 0 -10 40 -10 100 0 99 0 100 24
100 13 0 29 -7 36 -15 20 -24 30 -17 30 20 l0 35 -170 -1 c-163 0 -207 -8
-168 -30 18 -10 32 -71 23 -100 -9 -27 -22 -15 -75 67 -40 61 -44 64 -81 64
-40 0 -55 -22 -24 -34 13 -5 15 -23 13 -103 -3 -98 -3 -98 -30 -101 -28 -3
-24 -11 -89 166 -26 68 -32 77 -47 60z m538 -49 c0 -17 -4 -28 -10 -24 -5 3
-10 17 -10 31 0 13 5 24 10 24 6 0 10 -14 10 -31z m-522 -67 c2 -7 -3 -12 -12
-12 -9 0 -16 7 -16 16 0 17 22 14 28 -4z m522 -97 c0 -14 -4 -25 -10 -25 -11
0 -14 33 -3 43 11 11 13 8 13 -18z m-450 -11 c0 -8 -4 -12 -10 -9 -5 3 -10 10
-10 16 0 5 5 9 10 9 6 0 10 -7 10 -16z"/>
<path d="M4004 1139 c-4 -7 1 -16 10 -21 23 -13 24 -203 0 -212 -29 -11 -3
-26 47 -26 35 0 49 4 49 14 0 8 -7 16 -15 20 -12 4 -15 25 -15 101 0 76 3 97
15 101 8 4 15 12 15 20 0 17 -95 20 -106 3z m59 -125 c-1 -58 -4 -108 -7 -112
-3 -3 -6 45 -6 106 0 62 3 112 8 112 4 0 6 -48 5 -106z"/>
</g>
</svg>
