<?xml version="1.0" standalone="no"?>
<!DOCTYPE svg PUBLIC "-//W3C//DTD SVG 20010904//EN"
 "http://www.w3.org/TR/2001/REC-SVG-20010904/DTD/svg10.dtd">
<svg version="1.0" xmlns="http://www.w3.org/2000/svg"
 width="452.000000pt" height="452.000000pt" viewBox="0 0 452.000000 452.000000"
 preserveAspectRatio="xMidYMid meet">

<g transform="translate(0.000000,452.000000) scale(0.100000,-0.100000)"
fill="#000000" stroke="none">
<path d="M2167 3089 c-131 -14 -248 -93 -301 -202 -40 -84 -48 -162 -44 -429
4 -204 8 -251 23 -293 47 -128 135 -210 263 -244 73 -20 232 -15 293 9 l54 21
72 -78 71 -77 39 27 c81 58 99 76 88 91 -5 8 -37 44 -69 81 l-59 66 21 38 c43
77 49 136 42 426 -6 245 -9 275 -29 327 -69 178 -231 261 -464 237z m156 -185
c55 -28 97 -75 112 -128 11 -38 15 -108 15 -291 0 -283 -7 -322 -69 -378 -45
-41 -89 -52 -164 -43 -82 9 -127 53 -152 146 -21 79 -21 506 0 576 15 52 61
105 105 123 39 15 118 13 153 -5z"/>
</g>
</svg>
