<?xml version="1.0" standalone="no"?>
<!DOCTYPE svg PUBLIC "-//W3C//DTD SVG 20010904//EN"
 "http://www.w3.org/TR/2001/REC-SVG-20010904/DTD/svg10.dtd">
<svg version="1.0" xmlns="http://www.w3.org/2000/svg"
 width="319.000000pt" height="142.000000pt" viewBox="0 0 319.000000 142.000000"
 preserveAspectRatio="xMidYMid meet">

<g transform="translate(0.000000,142.000000) scale(0.100000,-0.100000)"
fill="#000000" stroke="none">
<path d="M524 1104 c-45 -10 -59 -40 -59 -125 0 -68 3 -81 23 -101 19 -19 33
-23 87 -23 47 0 69 5 81 17 15 15 19 15 48 -3 37 -23 100 -24 140 -4 27 14 34
14 68 0 52 -20 106 -19 144 4 29 18 33 18 48 3 25 -25 137 -24 165 2 18 17 21
30 21 106 0 111 -12 125 -105 125 -38 0 -68 -5 -78 -14 -14 -11 -23 -11 -57 3
-50 20 -90 20 -135 2 -31 -13 -39 -13 -70 0 -47 19 -93 18 -137 -5 -31 -15
-39 -16 -50 -4 -15 14 -98 25 -134 17z m284 -77 c3 -55 2 -57 -23 -57 -24 0
-25 3 -25 53 0 58 5 69 30 65 11 -2 16 -18 18 -61z m-288 -10 c0 -67 10 -87
46 -87 12 0 24 -7 28 -15 16 -42 50 24 59 115 2 19 5 -2 5 -47 2 -74 0 -83
-20 -97 -39 -28 -127 -17 -150 18 -11 17 -9 135 2 157 19 35 30 20 30 -44z
m212 -74 c13 -16 90 -17 106 -1 7 7 12 36 12 66 0 33 4 51 10 47 6 -3 10 -37
10 -76 0 -56 -4 -73 -20 -89 -25 -25 -105 -27 -138 -4 -19 13 -22 24 -22 93 0
48 5 82 13 90 10 10 13 0 15 -51 2 -34 8 -68 14 -75z m198 122 c0 -8 9 -15 20
-15 17 0 20 -7 20 -40 0 -33 -3 -40 -20 -40 -13 0 -20 -7 -20 -20 0 -18 7 -20
60 -20 53 0 60 2 60 20 0 13 -7 20 -20 20 -16 0 -20 7 -20 38 0 29 5 39 25 48
13 7 26 9 30 6 3 -3 5 -40 5 -83 0 -69 -2 -80 -22 -93 -29 -20 -107 -20 -136
0 -19 13 -22 24 -22 93 0 46 5 82 12 89 16 16 28 15 28 -3z m210 0 c0 -9 9
-15 25 -15 l26 0 -27 -45 c-34 -59 -27 -75 31 -75 38 0 45 3 45 20 0 15 -7 20
-25 20 -14 0 -25 2 -25 3 0 2 13 27 29 56 26 49 29 51 45 36 12 -12 16 -35 16
-85 0 -62 -2 -70 -26 -89 -42 -33 -131 -25 -156 13 -11 17 -9 135 2 157 13 23
40 26 40 4z m-530 -45 c0 -16 -4 -30 -9 -30 -5 0 -16 -3 -25 -6 -13 -5 -16 1
-16 30 0 32 3 36 25 36 21 0 25 -5 25 -30z"/>
<path d="M1383 1103 c-38 -7 -53 -41 -53 -119 0 -40 3 -80 6 -89 18 -45 131
-61 178 -24 26 21 27 21 48 3 28 -26 137 -27 165 -2 18 17 20 17 36 0 24 -24
139 -24 163 0 15 15 19 15 48 -3 40 -24 101 -24 147 0 33 18 38 18 52 4 25
-26 110 -29 149 -6 32 19 34 19 63 1 37 -22 100 -23 140 -2 27 14 33 14 67 -2
53 -24 125 -15 155 21 19 21 23 38 23 90 0 35 -5 75 -11 89 -21 45 -98 58
-169 30 -34 -14 -43 -14 -57 -3 -25 21 -136 18 -160 -3 -18 -17 -20 -17 -36 0
-24 23 -139 24 -162 1 -15 -15 -19 -15 -53 2 -20 11 -52 19 -72 19 -20 0 -52
-8 -72 -19 -34 -17 -38 -17 -53 -2 -23 23 -136 22 -162 -1 -17 -16 -21 -16
-34 -3 -24 24 -110 30 -151 11 -31 -15 -38 -15 -71 -1 -35 14 -77 17 -124 8z
m2 -99 c-6 -70 -6 -76 12 -72 10 2 19 13 21 26 5 34 52 31 52 -3 0 -18 5 -25
20 -25 19 0 19 5 13 78 -6 71 -5 76 10 63 26 -21 24 -154 -3 -181 -27 -27
-108 -28 -141 -1 -21 17 -24 28 -24 89 0 44 5 75 14 85 27 33 34 19 26 -59z
m415 1 l0 -75 55 0 c48 0 55 2 55 20 0 16 -7 20 -35 20 -41 0 -47 17 -8 22 17
2 29 10 31 21 3 13 -3 17 -27 17 -17 0 -31 5 -31 10 0 6 14 10 30 10 17 0 30
5 30 10 0 6 7 10 15 10 12 0 15 -16 15 -84 0 -76 -2 -86 -22 -100 -25 -18 -84
-21 -122 -6 -25 9 -26 12 -26 98 0 90 3 102 27 102 10 0 13 -19 13 -75z m200
0 c0 -58 3 -75 14 -75 9 0 16 12 18 27 4 39 36 43 40 6 2 -17 10 -29 21 -31
16 -3 18 2 17 35 -1 21 -2 55 -1 77 1 33 3 37 16 26 11 -9 15 -33 15 -91 0
-69 -2 -80 -22 -93 -12 -9 -43 -16 -68 -16 -25 0 -56 7 -68 16 -19 13 -22 24
-22 93 0 71 9 101 32 101 4 0 8 -34 8 -75z m204 60 c3 -8 12 -15 21 -15 11 0
15 -11 15 -40 0 -34 -3 -40 -21 -40 -14 0 -19 -5 -17 -17 2 -14 15 -19 61 -21
52 -3 57 -1 57 18 0 13 -7 20 -20 20 -17 0 -20 7 -20 40 0 33 3 40 20 40 11 0
20 5 20 11 0 5 5 7 10 4 6 -3 10 -42 10 -85 0 -70 -2 -81 -22 -94 -33 -23
-113 -21 -138 4 -33 33 -25 190 9 190 5 0 11 -7 15 -15z m208 -122 c6 -7 30
-13 54 -13 37 0 44 3 44 20 0 16 -7 20 -35 20 -34 0 -35 1 -35 40 0 38 2 40
30 40 17 0 33 7 39 18 10 16 12 16 26 -2 19 -25 20 -145 2 -170 -20 -27 -108
-34 -142 -12 -23 15 -25 22 -25 94 0 49 5 83 13 91 10 10 13 0 15 -51 2 -34 8
-68 14 -75z m197 90 c-13 -81 -11 -105 9 -101 9 2 18 13 20 26 5 34 52 31 52
-3 0 -18 5 -25 20 -25 19 0 19 5 13 78 -6 71 -5 76 10 63 13 -10 17 -31 17
-92 0 -69 -2 -80 -22 -93 -12 -9 -43 -16 -68 -16 -25 0 -56 7 -68 16 -19 13
-22 24 -22 93 0 75 9 101 35 101 8 0 10 -14 4 -47z m-1029 -39 c0 -50 3 -64
15 -64 12 0 15 13 15 60 0 33 4 60 10 60 6 0 10 -16 10 -36 0 -28 3 -35 18
-32 11 2 19 15 22 38 3 29 5 25 10 -25 4 -46 9 -61 22 -63 14 -3 18 7 21 60
l3 63 2 -77 c2 -69 0 -78 -20 -92 -13 -9 -43 -16 -70 -16 -70 0 -88 22 -88
104 0 35 3 71 6 80 12 32 24 3 24 -60z m-120 41 c0 -8 -7 -15 -15 -15 -8 0
-15 7 -15 15 0 8 7 15 15 15 8 0 15 -7 15 -15z m610 5 c0 -5 -9 -10 -20 -10
-11 0 -20 5 -20 10 0 6 9 10 20 10 11 0 20 -4 20 -10z m610 -5 c0 -8 -7 -15
-15 -15 -8 0 -15 7 -15 15 0 8 7 15 15 15 8 0 15 -7 15 -15z"/>
<path d="M913 640 c-33 -13 -43 -42 -43 -123 0 -98 18 -117 110 -117 44 0 69
5 81 16 16 15 20 15 41 0 29 -20 135 -22 164 -2 17 12 22 12 39 0 27 -20 134
-18 163 2 21 15 25 15 41 0 24 -22 138 -22 162 0 16 15 20 15 41 0 29 -20 135
-22 164 -2 17 12 22 12 39 0 11 -8 43 -14 81 -14 88 0 107 17 112 104 6 86 -9
121 -55 137 -44 14 -118 7 -141 -15 -17 -14 -19 -14 -35 1 -23 24 -116 29
-155 9 -27 -14 -33 -14 -59 -1 -36 19 -110 19 -146 0 -24 -12 -32 -12 -62 1
-45 18 -102 18 -139 -1 -26 -14 -33 -14 -62 0 -41 19 -107 19 -144 0 -25 -13
-32 -13 -57 0 -31 16 -105 19 -140 5z m37 -96 l0 -75 42 3 c31 2 44 8 46 20 2
12 -5 17 -25 20 -27 3 -28 5 -28 58 0 62 16 74 60 46 23 -15 25 -23 25 -95 0
-96 -9 -106 -90 -106 -81 0 -90 10 -90 106 0 68 3 80 22 93 12 8 25 13 30 10
4 -3 8 -39 8 -80z m186 59 c-2 -10 -6 -43 -8 -73 -2 -45 0 -55 15 -58 13 -3
17 3 17 22 0 21 5 26 24 26 18 0 25 -6 28 -22 2 -13 11 -24 22 -26 17 -4 18 1
11 74 -6 71 -6 77 9 65 22 -18 23 -163 2 -180 -34 -29 -120 -26 -150 5 -20 19
-23 153 -4 172 18 18 40 15 34 -5z m204 8 c0 -5 9 -11 20 -14 17 -4 20 -14 20
-66 0 -48 3 -61 15 -61 12 0 15 13 15 59 0 56 1 60 29 69 36 13 41 4 41 -78 0
-82 -20 -105 -93 -105 -78 0 -87 11 -87 110 0 45 3 85 7 88 9 10 33 8 33 -2z
m200 0 c0 -5 9 -11 20 -14 16 -4 20 -14 20 -46 0 -35 -3 -41 -21 -41 -14 0
-19 -5 -17 -17 3 -15 14 -18 58 -18 44 0 55 3 58 18 2 12 -3 17 -17 17 -18 0
-21 6 -21 40 0 33 4 42 23 49 12 5 25 7 30 4 4 -2 7 -39 7 -82 0 -96 -9 -106
-90 -106 -81 0 -90 11 -90 104 0 47 5 82 12 89 14 14 28 16 28 3z m200 -72 c0
-55 3 -69 15 -69 12 0 15 13 15 60 0 33 5 61 10 62 33 4 35 1 40 -57 4 -47 9
-61 23 -63 15 -3 17 5 17 68 0 45 4 69 10 65 16 -10 13 -160 -4 -174 -34 -29
-120 -26 -150 5 -30 29 -16 198 15 179 5 -4 9 -37 9 -76z m204 5 c-7 -71 -6
-76 12 -72 11 2 20 13 22 26 5 34 52 31 52 -3 0 -15 6 -25 14 -25 23 0 25 11
16 80 -4 36 -6 67 -4 69 2 2 10 -2 19 -9 11 -9 15 -32 15 -85 0 -91 -16 -110
-95 -110 -76 0 -85 11 -85 110 0 84 3 95 27 95 11 0 12 -15 7 -76z m-741 31
c1 -5 -6 -11 -15 -13 -11 -2 -18 3 -18 13 0 17 30 18 33 0z m817 -1 c0 -9 -7
-14 -17 -12 -25 5 -28 28 -4 28 12 0 21 -6 21 -16z"/>
</g>
</svg>
