<?xml version="1.0" standalone="no"?>
<!DOCTYPE svg PUBLIC "-//W3C//DTD SVG 20010904//EN"
 "http://www.w3.org/TR/2001/REC-SVG-20010904/DTD/svg10.dtd">
<svg version="1.0" xmlns="http://www.w3.org/2000/svg"
 width="485.000000pt" height="484.000000pt" viewBox="0 0 485.000000 484.000000"
 preserveAspectRatio="xMidYMid meet">

<g transform="translate(0.000000,484.000000) scale(0.100000,-0.100000)"
fill="#000000" stroke="none">
<path d="M0 2420 l0 -2420 2425 0 2425 0 0 2420 0 2420 -2425 0 -2425 0 0
-2420z m2167 2125 c35 -24 48 -81 30 -132 -14 -41 -14 -43 9 -58 25 -16 33
-45 12 -45 -7 0 -28 9 -46 20 -18 11 -50 20 -71 20 -53 0 -69 8 -86 41 -43 81
3 169 87 169 24 0 53 -7 65 -15z m123 -59 c0 -74 13 -106 43 -106 33 1 42 20
45 100 4 71 6 80 23 80 17 0 19 -8 19 -82 0 -70 -3 -85 -22 -105 -28 -30 -95
-32 -129 -4 -21 17 -24 29 -28 105 l-3 86 26 0 c26 0 26 -1 26 -74z m230 -31
l0 -105 -25 0 -25 0 0 105 0 105 25 0 25 0 0 -105z m170 90 c0 -8 -20 -47 -44
-87 l-45 -73 45 -3 c31 -2 44 -7 44 -18 0 -12 -14 -14 -72 -12 -87 4 -88 7
-27 103 21 34 39 65 39 69 0 3 -18 6 -40 6 -29 0 -40 4 -40 15 0 12 14 15 70
15 55 0 70 -3 70 -15z"/>
<path d="M2067 4512 c-10 -11 -17 -35 -17 -60 0 -63 41 -91 86 -58 27 20 27
102 0 122 -27 19 -50 18 -69 -4z"/>
</g>
</svg>
